<?xml version="1.0" encoding="iso-8859-1"?>
<!-- Generator: Adobe Illustrator 19.0.0, SVG Export Plug-In . SVG Version: 6.00 Build 0)  -->
<svg version="1.1" id="Capa_1" xmlns="http://www.w3.org/2000/svg" xmlns:xlink="http://www.w3.org/1999/xlink" x="0px" y="0px"
	 viewBox="0 0 512 512" style="enable-background:new 0 0 512 512;" xml:space="preserve">
<g>
	<path style="fill:#91DC5A;" d="M62.411,206.495H39.894c-4.274,0-7.739,3.464-7.739,7.739s3.465,7.739,7.739,7.739h22.517
		c4.274,0,7.739-3.464,7.739-7.739S66.685,206.495,62.411,206.495z"/>
	<path style="fill:#91DC5A;" d="M137.072,164.609h-22.517c-4.274,0-7.739,3.464-7.739,7.739s3.465,7.739,7.739,7.739h22.517
		c4.274,0,7.739-3.464,7.739-7.739S141.347,164.609,137.072,164.609z"/>
	<path style="fill:#91DC5A;" d="M73.13,127.89l-33.211-17.922c-3.761-2.03-8.457-0.625-10.486,3.136s-0.626,8.456,3.135,10.486
		l33.211,17.922c1.169,0.631,2.428,0.929,3.669,0.929c2.753,0,5.419-1.473,6.818-4.065C78.295,134.615,76.891,129.92,73.13,127.89z"
		/>
	<path style="fill:#91DC5A;" d="M109.112,133.784l22.555-30.254c2.555-3.426,1.848-8.276-1.579-10.83
		c-3.427-2.557-8.276-1.848-10.831,1.579l-22.555,30.254c-2.555,3.426-1.848,8.276,1.579,10.83c1.389,1.036,3.011,1.534,4.62,1.534
		C105.261,136.897,107.592,135.822,109.112,133.784z"/>
	<path style="fill:#91DC5A;" d="M479.732,220.115l-22.886-13.705c-3.669-2.197-8.422-1.004-10.617,2.663
		c-2.196,3.667-1.003,8.421,2.664,10.617l22.886,13.705c1.246,0.746,2.616,1.1,3.969,1.1c2.631,0,5.198-1.343,6.648-3.763
		C484.593,227.064,483.4,222.311,479.732,220.115z"/>
	<path style="fill:#91DC5A;" d="M391.997,220.834c-0.029,0-0.059,0-0.087,0c-4.235,0-7.691,3.41-7.737,7.654l-0.395,35.772
		c-0.047,4.274,3.38,7.778,7.654,7.825c0.029,0,0.059,0,0.088,0c4.234,0,7.69-3.409,7.737-7.654l0.395-35.772
		C399.697,224.385,396.27,220.882,391.997,220.834z"/>
	<path style="fill:#91DC5A;" d="M463.743,52.73c-3.385-2.611-8.244-1.983-10.856,1.4l-20.801,26.965
		c-2.611,3.385-1.983,8.244,1.4,10.856c1.409,1.087,3.071,1.612,4.722,1.612c2.317,0,4.609-1.036,6.134-3.012l20.801-26.965
		C467.754,60.2,467.126,55.34,463.743,52.73z"/>
	<path style="fill:#91DC5A;" d="M408.993,81.143L390.91,66.995c-3.367-2.636-8.231-2.04-10.864,1.327
		c-2.633,3.366-2.04,8.231,1.327,10.864l18.084,14.148c1.416,1.107,3.096,1.644,4.763,1.644c2.299,0,4.575-1.02,6.102-2.971
		C412.954,88.641,412.361,83.777,408.993,81.143z"/>
	<path style="fill:#91DC5A;" d="M116.357,285.68c-4.274,0-7.739,3.464-7.739,7.74v26.885c0,4.275,3.465,7.739,7.739,7.739
		c4.274,0,7.739-3.464,7.739-7.739v-26.885C124.097,289.144,120.632,285.68,116.357,285.68z"/>
	<path style="fill:#91DC5A;" d="M215.317,164.139c0-4.275-3.465-7.739-7.739-7.739h-30.341c-4.274,0-7.739,3.464-7.739,7.739
		s3.465,7.739,7.739,7.739h30.341C211.852,171.878,215.317,168.413,215.317,164.139z"/>
	<path style="fill:#91DC5A;" d="M351.078,277.246h-30.504c-4.274,0-7.739,3.464-7.739,7.739s3.465,7.74,7.739,7.74h30.504
		c4.274,0,7.739-3.464,7.739-7.74S355.353,277.246,351.078,277.246z"/>
	<path style="fill:#91DC5A;" d="M209.35,73.41c1.519,1.577,3.546,2.37,5.576,2.37c1.932,0,3.867-0.719,5.368-2.165
		c3.078-2.966,3.171-7.865,0.205-10.944l-24.164-25.088c-2.965-3.077-7.865-3.168-10.943-0.205
		c-3.078,2.966-3.171,7.865-0.205,10.944L209.35,73.41z"/>
	<path style="fill:#91DC5A;" d="M323.64,73.303l21.665-26.597c2.7-3.314,2.201-8.189-1.112-10.889
		c-3.314-2.699-8.189-2.202-10.889,1.113l-21.665,26.597c-2.7,3.314-2.201,8.189,1.112,10.889c1.436,1.169,3.165,1.739,4.883,1.739
		C319.881,76.156,322.11,75.181,323.64,73.303z"/>
	<path style="fill:#91DC5A;" d="M267.365,0c-4.274,0-7.739,3.464-7.739,7.739v35.774c0,4.275,3.465,7.739,7.739,7.739
		s7.74-3.464,7.74-7.739V7.739C275.105,3.464,271.639,0,267.365,0z"/>
	<path style="fill:#91DC5A;" d="M358.775,118.084l-35.406,5.12c-4.231,0.612-7.164,4.536-6.553,8.767
		c0.558,3.855,3.867,6.633,7.651,6.633c0.368,0,0.742-0.026,1.118-0.08l35.407-5.12c4.23-0.612,7.164-4.536,6.552-8.767
		C366.931,120.405,363.009,117.469,358.775,118.084z"/>
	<path style="fill:#91DC5A;" d="M215.621,309.415l-28.08,0.544c-4.273,0.084-7.67,3.615-7.588,7.889
		c0.082,4.223,3.53,7.589,7.735,7.589c0.051,0,0.102,0,0.153-0.001l28.08-0.544c4.273-0.084,7.67-3.615,7.588-7.889
		C223.425,312.73,219.854,309.329,215.621,309.415z"/>
</g>
<path style="fill:#4E901E;" d="M215.332,224.101v71.657c-113.889,0-119.315,0.033-120.746-0.021
	c-22.782-1.085-40.483-19.856-40.483-42.412l0.021-114.967c0-11.013,5.97-21.612,17.037-27.129c9.883-4.81,27.572-2.906,33.94,0.279
	c9.809,4.971,16.501,15.148,16.501,26.902l-0.072,72.349c-0.01,7.368,5.954,13.343,13.322,13.343L215.332,224.101L215.332,224.101z"
	/>
<path style="fill:#5EAC24;" d="M215.332,224.101v45.518c-136.807,0-78.372,0.541-93.235-0.021
	c-22.717-1.081-40.483-19.763-40.483-42.412c0.106-120.848-0.187-115.193,0.258-118.724c9.391-0.905,19.878,1.369,23.229,3.044
	c9.809,4.971,16.501,15.148,16.501,26.902l-0.072,72.349c-0.01,7.368,5.954,13.343,13.322,13.343L215.332,224.101L215.332,224.101z"
	/>
<path style="fill:#7ED63E;" d="M99.225,221.006V109.681c-6.068-1.372-15.262-2.301-23.218-0.206v123.398
	c0,21.657,17.556,39.213,39.213,39.213h102.677v-24.25h-91.842C111.238,247.836,99.225,235.823,99.225,221.006z"/>
<path style="fill:#5EAC24;" d="M459.023,198.479c0,14.85-7.162,28.038-18.224,36.283c-7.492,5.583-16.769,8.906-26.83,8.947H294.925
	V175.26h85.774c7.853,0,14.21-6.367,14.199-14.21l-0.083-64.258v-0.041c0-13.116,7.874-24.395,19.153-29.379
	c1.95-0.856,4.004-1.527,6.14-1.992c2.188-0.475,4.468-0.722,6.811-0.722c4.974,0.01,9.68,1.135,13.88,3.158
	c10.773,5.18,18.203,16.191,18.203,28.935L459.023,198.479z"/>
<path style="fill:#4E901E;" d="M459.023,198.479c0,14.85-7.162,28.038-18.224,36.283c-7.492,5.583-16.769,8.906-26.83,8.947H294.925
	v-34.394h111.056c7.853,0,14.21-6.367,14.199-14.21L420.108,65.38c2.188-0.475,4.468-0.722,6.811-0.722
	c4.974,0.01,9.68,1.135,13.88,3.158c10.773,5.18,18.203,16.191,18.203,28.935L459.023,198.479z"/>
<path style="fill:#7ED63E;" d="M426.296,64.658c-2.964,0-5.814,0.559-8.482,1.593c-1.479,0.573-2.477,1.968-2.477,3.554v100.297
	c0,14.059-11.397,25.456-25.456,25.456h-81.86c-2.089,0-3.782,1.693-3.782,3.782v17.202c0,2.089,1.693,3.782,3.782,3.782
	c7.043,0,65.74,0,101.818,0c15.579,0,28.201-12.629,28.201-28.208V70.149c0-1.466-0.829-2.834-2.167-3.431
	C432.897,65.389,429.669,64.666,426.296,64.658z"/>
<path style="fill:#4E901E;" d="M341.981,105.027l-13.869,253.731l-0.681,12.383H207.303l-14.561-266.114
	c0-33.321,21.846-61.544,51.989-71.121c7.131-2.27,14.736-3.498,22.63-3.498c20.608,0,39.265,8.348,52.763,21.856
	C333.633,65.762,341.981,84.419,341.981,105.027z"/>
<path style="fill:#5EAC24;" d="M341.981,105.027l-13.869,253.731h-97.414L216.137,92.644c0-23.848,11.186-45.075,28.595-58.738
	c7.131-2.27,14.736-3.498,22.63-3.498c20.608,0,39.265,8.348,52.763,21.856C333.633,65.762,341.981,84.419,341.981,105.027z"/>
<path style="fill:#7ED63E;" d="M289.202,376.303h-43.673l-5.292-273.859c0-39.787,12.146-72.04,27.129-72.04l0,0
	c14.983,0,27.129,32.254,27.129,72.04L289.202,376.303z"/>
<path style="fill:#884D00;" d="M379.161,369.078l-5.985,36.159c-0.031,0.155-16.408,99.076-16.387,98.931
	c-0.743,4.52-4.654,7.832-9.236,7.832H186.231c-4.582,0-8.493-3.313-9.236-7.832l-3.488-21.062
	c-0.103-0.65-1.992-12.043-12.889-77.87l-5.985-36.159H379.161z"/>
<path style="fill:#AA6100;" d="M379.161,369.078l-5.985,36.159c-0.031,0.155-16.408,99.076-16.387,98.931
	c-0.743,4.52-4.654,7.832-9.236,7.832H215.126c-4.582,0-8.493-3.313-9.236-7.832l-3.488-21.062
	c-0.103-0.65-1.992-12.043-12.889-77.87l-5.985-36.159H379.161z"/>
<polygon style="fill:#FFB655;" points="371.387,416.03 360.82,479.855 360.283,483.106 173.504,483.106 172.967,479.855 
	162.803,418.445 162.4,416.03 "/>
<path style="fill:#FFA733;" d="M191.298,416.03h-28.894l0.402,2.415l10.165,61.41l0.537,3.251h28.894
	C202.309,482.497,200.617,472.333,191.298,416.03z"/>
<g>
	<path style="fill:#AA6100;" d="M267.159,444.666h-78.427c-4.274,0-7.739-3.464-7.739-7.739s3.465-7.74,7.739-7.74h78.427
		c4.274,0,7.74,3.464,7.74,7.74S271.433,444.666,267.159,444.666z"/>
	<path style="fill:#AA6100;" d="M276.446,469.949h-78.427c-4.274,0-7.739-3.464-7.739-7.739s3.465-7.74,7.739-7.74h78.427
		c4.274,0,7.739,3.464,7.739,7.74S280.72,469.949,276.446,469.949z"/>
</g>
<path style="fill:#FFA733;" d="M396.828,360.709v4.798c0,9.948-8.059,18.018-18.007,18.018H151.827
	c-9.948,0-18.007-8.07-18.007-18.018v-4.798c0-9.948,8.059-18.007,18.007-18.007h226.994
	C388.769,342.701,396.828,350.761,396.828,360.709z"/>
<path style="fill:#FFC477;" d="M396.828,360.709v4.798c0,9.948-8.059,18.018-18.007,18.018h-198.1
	c-9.948,0-18.007-8.07-18.007-18.018v-4.798c0-9.948,8.059-18.007,18.007-18.007h198.1
	C388.769,342.701,396.828,350.761,396.828,360.709z"/>
<g>
</g>
<g>
</g>
<g>
</g>
<g>
</g>
<g>
</g>
<g>
</g>
<g>
</g>
<g>
</g>
<g>
</g>
<g>
</g>
<g>
</g>
<g>
</g>
<g>
</g>
<g>
</g>
<g>
</g>
</svg>
